<svg width="127" height="41" viewBox="0 0 127 41" fill="none" xmlns="http://www.w3.org/2000/svg">
<path d="M106.399 0.296288C101.669 1.61952 99.7037 5.7618 99.7037 14.3916C99.7037 20.4612 99.1943 21.4392 96.1377 21.4392C94.3183 21.4392 92.4261 20.5187 92.4261 19.627C92.4261 18.8503 91.48 18.5914 90.5339 19.1667C90.3155 19.3393 89.4422 19.3968 88.5689 19.3105C86.5312 19.1092 81.9463 20.0872 80.9274 21.0077C79.3263 22.3597 80.1996 24.1144 82.674 24.6897C84.0568 25.0062 83.984 25.3514 82.0918 26.4157C79.9085 27.6526 73.3586 30.3566 72.5581 30.3566C72.1942 30.3566 72.1214 29.4361 72.3398 28.2567C73.5042 23.2515 73.6497 21.4392 72.922 21.4392C72.5581 21.4392 71.9759 21.6406 71.7576 21.8995C71.5392 22.1296 71.0298 22.2734 70.5931 22.1584C69.5743 21.8995 67.0271 23.0213 66.5904 23.9418C65.5716 25.8116 63.6794 26.2431 63.0244 24.7473C62.3694 23.4816 61.1322 23.4528 58.0028 24.7185C55.674 25.639 55.3829 25.6678 54.2184 25.2363C53.2723 24.8623 52.8357 24.8336 52.6174 25.0925C51.9624 25.7541 51.0891 25.4664 50.6524 24.4596C50.143 23.3953 49.0513 23.2227 46.3586 23.7692C42.5742 24.5459 41.4826 25.2075 41.4826 26.7609C41.4826 27.5663 41.8464 28.3718 42.2831 28.5444C43.4475 29.0046 42.5014 29.7813 40.8276 29.7813C39.5904 29.7813 39.2993 29.5224 38.8626 28.3718C38.2076 26.3582 37.8437 26.1856 34.6416 26.6171C32.0216 26.9623 29.1106 28.1129 29.1106 28.8033C29.1106 29.0334 28.8195 29.206 28.3828 29.206C28.0189 29.206 27.655 29.0622 27.655 28.8608C27.655 28.6882 27.1456 28.3142 26.4906 28.0266C25.2534 27.48 23.7979 27.5663 21.6146 28.2855C20.9596 28.5156 20.2318 28.6594 20.0135 28.5731C19.868 28.5156 19.5769 27.5088 19.5041 26.3294L19.2858 24.2295L25.4718 23.4241C28.8922 22.9638 34.7871 22.2734 38.5715 21.8419C42.3559 21.4392 49.2696 20.605 53.8546 20.0009C58.4395 19.3968 63.3883 18.8215 64.771 18.7064C66.1538 18.5914 67.6821 18.39 68.046 18.275C68.4826 18.1599 70.0837 17.901 71.6848 17.6996C73.2859 17.4983 74.9597 17.2394 75.3236 17.1243C76.2697 16.8367 82.674 16.06 85.8034 15.8586C90.825 15.5134 91.9894 14.3916 87.0406 14.6792L83.7657 14.8806L83.0379 13.7875C82.674 13.1546 81.9463 11.6876 81.5096 10.5082C80.3452 7.74665 79.763 7.2864 77.2886 7.40146C75.7603 7.45899 74.8869 7.83295 73.4314 8.86852L71.5392 10.2493L71.1026 7.60282C70.8842 6.13576 70.8115 4.15092 71.0298 3.20164C71.3937 1.56199 70.5931 0.35382 69.5015 0.785308C69.2104 0.900372 68.7737 1.73458 68.4826 2.65509C67.9732 4.35228 62.8788 8.95482 60.6955 9.67396C59.8222 9.96162 59.3128 9.90409 58.0028 9.44384C57.1295 9.09865 55.674 8.75346 54.8734 8.66716C53.4907 8.49456 53.1996 8.60963 52.8357 9.44384C52.3263 10.5657 49.488 11.8314 49.488 10.9684C49.488 10.3356 45.2669 9.35754 42.4287 9.35754C40.6092 9.35754 39.7359 9.58767 37.9165 10.5657C35.0055 12.1478 34.7871 13.9313 37.4799 14.9669C39.5176 15.8011 40.7548 15.8586 43.5203 15.2833C45.4853 14.8518 51.6713 12.1766 51.6713 11.7451C51.6713 11.63 52.4718 11.1123 53.4179 10.652C55.019 9.87532 55.2373 9.84656 55.7467 10.3068C56.1106 10.6808 55.6012 11.1123 54.0001 11.7451C49.2696 13.6724 49.3424 15.7723 54.1457 16.1175C59.8222 16.549 62.2966 15.2833 61.6416 12.2917C61.205 10.4506 61.205 10.4506 64.6255 8.55209L68.046 6.62478L68.2643 10.9397C68.4098 14.8806 68.5554 15.1682 69.5743 14.5929C70.1565 14.2477 71.1026 13.356 71.612 12.6081C72.7037 10.9109 75.9058 8.86852 77.3613 8.86852C78.1619 8.86852 78.5985 9.30001 78.9624 10.3356C79.1808 11.141 79.763 12.5506 80.1996 13.4711C80.6363 14.4491 80.7091 15.2545 80.3452 15.3984C79.3263 15.7723 67.9004 17.2682 61.86 17.8147C58.8761 18.1024 54.1457 18.764 51.3074 19.2818C45.558 20.3461 33.6227 21.7269 29.9839 21.7269C28.6739 21.7269 25.7629 21.9858 23.5068 22.3022C21.1779 22.6186 19.1402 22.7912 18.8491 22.6474C18.6308 22.5323 17.9758 20.116 17.4663 17.2682C17.0297 14.4203 16.4475 12.0328 16.3019 11.9752C15.2831 11.5725 14.1914 13.0683 12.2992 17.5558C11.7898 18.6489 11.1348 19.8858 10.7709 20.2886C10.1159 21.0077 5.96767 23.2515 2.03774 25.1212C0.946094 25.639 0 26.1856 0 26.3582C0 26.7321 2.91106 26.4157 7.35042 25.5815C9.31538 25.2075 11.9353 24.8623 13.2453 24.8336L15.6469 24.7473L16.3019 29.206C16.8841 33.6359 17.6119 35.1318 18.8491 34.8153C19.213 34.729 19.7952 33.9236 20.0135 33.0031C20.5957 31.1908 23.0701 28.9183 24.4529 28.9183C25.3262 28.9183 25.6901 29.3498 26.5634 31.7374C27.0001 32.7442 27.2184 32.9168 28.0917 32.6291C28.6739 32.4565 29.1106 31.9675 29.1106 31.5648C29.1106 30.8169 33.7683 27.7677 34.9327 27.7677C35.2966 27.7677 35.9516 28.3142 36.3882 28.9759C37.4799 30.6731 38.7171 31.7374 39.0809 31.2771C39.2993 31.1045 39.7359 30.9319 40.1726 30.9319C40.5365 30.9319 41.2642 30.7593 41.7737 30.558C42.2831 30.3854 44.0297 29.8101 45.558 29.3498C47.0863 28.8608 49.4152 28.0554 50.7252 27.5088L53.054 26.502L53.4907 27.365C53.7818 27.8252 54.2184 28.4581 54.5823 28.7745L55.1645 29.3498L55.674 28.7745C55.8923 28.4581 56.4745 27.9691 56.8384 27.7102C57.2023 27.4225 57.4934 27.0486 57.4934 26.8472C57.4934 26.6458 58.1484 26.1568 58.9489 25.7541L60.3317 25.0349L61.205 25.9554C61.6416 26.4732 62.2966 26.9047 62.6605 26.9047C63.8977 26.9047 68.046 25.9842 68.6282 25.5815C68.9193 25.3514 69.5743 25.1788 70.0109 25.1788C70.5204 25.1788 70.5931 25.8692 70.1565 27.3937C69.8654 28.6307 69.7198 30.3279 69.7926 31.1333C69.8654 32.1689 69.4287 33.0894 68.4098 34.0099C66.2266 35.9372 65.7171 39.3316 67.4638 40.2809C68.1915 40.6548 68.9921 41 69.2832 41C69.5015 41 70.3748 40.4534 71.1753 39.7631C72.1942 38.9001 72.7764 37.6344 73.0675 35.2756C73.3586 33.4921 73.8681 31.7374 74.3775 31.421C74.8142 31.1045 77.143 29.9539 79.6174 28.9183C82.019 27.854 85.3668 26.2431 86.9678 25.3226C92.2077 22.3309 92.4261 22.2447 96.5743 22.1871C98.6121 22.1584 100.504 22.0721 100.723 22.0145C100.868 21.9282 101.232 20.2886 101.45 18.39C101.669 16.4627 102.033 14.708 102.178 14.5066C102.396 14.2765 102.688 11.9752 102.906 9.3863C103.27 5.12896 103.488 4.61117 104.798 4.12215C105.599 3.83449 106.254 3.28794 106.254 2.94275C106.254 2.59756 106.545 2.1373 106.909 1.90718C108 1.24556 109.165 1.84965 109.237 3.11534C109.31 4.63994 111.13 7.51652 111.275 6.48095C111.421 5.81934 111.493 5.81934 112.076 6.33712C112.367 6.65355 113.022 7.48776 113.531 8.2069C114.041 8.92605 114.696 9.81779 114.987 10.2205L115.569 10.9397L115.642 10.2205C115.86 7.66035 112.003 1.76335 109.31 0.440118C108.146 -0.106434 108 -0.1352 106.399 0.296288ZM46.1403 11.3711C46.5769 11.5437 46.4314 12.1191 45.8492 12.8382C45.0486 13.7587 44.2481 14.1327 42.3559 14.4491C40.4637 14.7655 39.6632 14.7655 38.8626 14.5066C37.1888 13.9601 37.6982 12.6656 39.8815 11.6876C41.4098 10.9684 42.2103 10.7958 43.6659 10.9397C44.6847 11.0547 45.7764 11.2273 46.1403 11.3711ZM59.5311 12.7807C59.7494 13.4711 59.3128 13.9313 58.1484 14.4203C54.2184 16.06 52.1807 14.5066 55.7467 12.6368C58.0756 11.4574 59.24 11.4862 59.5311 12.7807ZM88.3506 20.6338C87.2589 22.0433 85.8034 22.9063 84.5662 22.82C82.019 22.6186 84.639 20.0009 87.4045 20.0009C88.5689 20.0009 88.7872 20.116 88.3506 20.6338ZM15.7197 23.0213C15.3558 23.4528 11.9353 24.1144 10.9165 23.9706C10.6254 23.9131 11.2076 23.1939 12.2264 22.3309L13.9731 20.8064L15.0647 21.6981C15.7197 22.1871 16.0108 22.7624 15.7197 23.0213ZM48.5419 25.7829C48.1052 27.0486 45.8492 28.2567 44.4664 27.9403C43.3748 27.6526 43.4475 25.9842 44.612 25.4089C45.4125 24.9774 46.868 24.6897 48.3235 24.6322C48.6874 24.6035 48.7602 25.15 48.5419 25.7829ZM70.5931 36.7427C70.5931 38.4974 69.7198 39.6192 68.7009 39.2165C68.046 38.9576 68.046 36.3975 68.7009 35.592C69.7198 34.4126 70.5931 34.9592 70.5931 36.7427Z" fill="#FEFCFC"/>
<path d="M37.8436 1.36063C36.4609 3.4893 34.0593 6.62478 33.7682 6.73984C33.1132 6.99874 30.566 5.7618 29.7655 4.81253C29.1105 4.03585 25.7628 1.96471 23.6522 1.07297C23.5067 1.01544 22.3423 1.0442 21.1051 1.15926C19.1401 1.33186 18.849 1.44692 19.2129 2.05101C19.8679 3.02905 25.035 6.33712 28.5283 7.97678L31.3665 9.32877L30.2749 11.026C29.6927 11.9465 28.9649 14.2477 28.6738 16.1463C28.2371 19.5119 28.2371 19.627 29.6927 19.7708C31.5849 19.9721 31.876 19.6845 32.3854 16.8367C32.8948 14.1327 33.3315 12.7807 34.2776 10.9397C35.442 8.83975 38.1347 5.96317 38.4258 6.53848C38.5714 6.82614 39.0081 7.05627 39.4447 7.05627C39.8814 7.05627 39.9541 6.71108 39.663 6.16453C39.3719 5.67551 39.5175 4.46734 40.0269 3.43177C41.4097 0.555182 39.5175 -1.19954 37.8436 1.36063Z" fill="#FEFCFC"/>
<path d="M122.191 13.6149C120.372 14.1902 117.97 15.1395 116.878 15.686C115.132 16.549 115.059 16.6928 116.151 16.7791C116.806 16.8367 117.533 16.7791 117.825 16.6353C118.043 16.4915 119.135 16.1751 120.299 15.8874C122.264 15.3984 126.63 13.2409 126.63 12.7519C126.63 12.3492 125.612 12.5218 122.191 13.6149Z" fill="#FEFCFC"/>
<path d="M39.6631 16.2901C39.372 16.4627 39.2992 16.6641 39.5176 16.7504C40.027 16.9517 41.4825 16.5778 41.4825 16.2326C41.4825 15.8874 40.2453 15.8874 39.6631 16.2901Z" fill="#FEFCFC"/>
</svg>
