<svg xmlns="http://www.w3.org/2000/svg" xmlns:xlink="http://www.w3.org/1999/xlink" width="167" zoomAndPan="magnify" viewBox="0 0 125.25 69.749998" height="93" preserveAspectRatio="xMidYMid meet" version="1.0"><defs><clipPath id="f1c5bb0cce"><path d="M 0 0.691406 L 76 0.691406 L 76 68.535156 L 0 68.535156 Z M 0 0.691406 " clip-rule="nonzero"/></clipPath><clipPath id="decba8a114"><path d="M 12 0.691406 L 27 0.691406 L 27 34 L 12 34 Z M 12 0.691406 " clip-rule="nonzero"/></clipPath><clipPath id="bfc90664b3"><path d="M 75 21 L 82.753906 21 L 82.753906 29 L 75 29 Z M 75 21 " clip-rule="nonzero"/></clipPath></defs><g clip-path="url(#f1c5bb0cce)"><path fill="#ffffff" d="M 69.53125 1.289062 C 66.441406 3.472656 65.15625 10.304688 65.15625 24.539062 C 65.15625 34.546875 64.824219 36.160156 62.828125 36.160156 C 61.636719 36.160156 60.402344 34.644531 60.402344 33.171875 C 60.402344 31.890625 59.78125 31.464844 59.164062 32.414062 C 59.023438 32.699219 58.453125 32.792969 57.878906 32.652344 C 56.550781 32.320312 53.550781 33.933594 52.886719 35.449219 C 51.839844 37.679688 52.410156 40.574219 54.027344 41.523438 C 54.933594 42.046875 54.882812 42.613281 53.648438 44.371094 C 52.222656 46.410156 47.941406 50.871094 47.417969 50.871094 C 47.179688 50.871094 47.132812 49.351562 47.273438 47.40625 C 48.035156 39.152344 48.128906 36.160156 47.65625 36.160156 C 47.417969 36.160156 47.035156 36.492188 46.894531 36.921875 C 46.75 37.300781 46.417969 37.539062 46.132812 37.347656 C 45.46875 36.921875 43.804688 38.769531 43.515625 40.289062 C 42.851562 43.375 41.613281 44.085938 41.1875 41.617188 C 40.757812 39.53125 39.949219 39.484375 37.90625 41.570312 C 36.382812 43.089844 36.191406 43.136719 35.433594 42.425781 C 34.8125 41.808594 34.527344 41.761719 34.386719 42.1875 C 33.957031 43.277344 33.386719 42.804688 33.101562 41.144531 C 32.769531 39.386719 32.054688 39.101562 30.296875 40.003906 C 27.824219 41.285156 27.109375 42.378906 27.109375 44.9375 C 27.109375 46.269531 27.347656 47.597656 27.632812 47.882812 C 28.394531 48.640625 27.773438 49.921875 26.679688 49.921875 C 25.871094 49.921875 25.683594 49.496094 25.398438 47.597656 C 24.96875 44.273438 24.730469 43.992188 22.636719 44.703125 C 20.925781 45.269531 19.023438 47.167969 19.023438 48.308594 C 19.023438 48.6875 18.832031 48.972656 18.546875 48.972656 C 18.3125 48.972656 18.074219 48.734375 18.074219 48.402344 C 18.074219 48.117188 17.738281 47.5 17.3125 47.027344 C 16.503906 46.125 15.550781 46.269531 14.125 47.453125 C 13.699219 47.832031 13.222656 48.070312 13.078125 47.929688 C 12.984375 47.832031 12.792969 46.171875 12.746094 44.226562 L 12.601562 40.765625 L 16.644531 39.4375 C 18.882812 38.675781 22.734375 37.539062 25.207031 36.824219 C 27.679688 36.160156 32.199219 34.785156 35.195312 33.789062 C 38.191406 32.792969 41.425781 31.84375 42.328125 31.65625 C 43.230469 31.464844 44.230469 31.132812 44.46875 30.941406 C 44.753906 30.753906 45.800781 30.324219 46.847656 29.992188 C 47.894531 29.660156 48.988281 29.234375 49.226562 29.042969 C 49.84375 28.570312 54.027344 27.289062 56.074219 26.957031 C 59.355469 26.386719 60.117188 24.539062 56.882812 25.011719 L 54.742188 25.34375 L 54.265625 23.542969 C 54.027344 22.496094 53.550781 20.078125 53.265625 18.132812 C 52.507812 13.578125 52.125 12.816406 50.507812 13.007812 C 49.511719 13.101562 48.9375 13.71875 47.988281 15.429688 L 46.75 17.707031 L 46.464844 13.339844 C 46.324219 10.921875 46.277344 7.648438 46.417969 6.082031 C 46.65625 3.375 46.132812 1.382812 45.417969 2.09375 C 45.230469 2.285156 44.945312 3.660156 44.753906 5.179688 C 44.421875 7.980469 41.09375 15.570312 39.664062 16.757812 C 39.09375 17.230469 38.761719 17.136719 37.90625 16.375 C 37.335938 15.808594 36.382812 15.238281 35.859375 15.09375 C 34.957031 14.8125 34.765625 15 34.527344 16.375 C 34.195312 18.226562 32.339844 20.316406 32.339844 18.890625 C 32.339844 17.847656 29.582031 16.234375 27.726562 16.234375 C 26.539062 16.234375 25.96875 16.613281 24.777344 18.226562 C 22.875 20.835938 22.734375 23.777344 24.492188 25.488281 C 25.824219 26.863281 26.632812 26.957031 28.441406 26.007812 C 29.726562 25.296875 33.769531 20.882812 33.769531 20.171875 C 33.769531 19.984375 34.289062 19.128906 34.910156 18.371094 C 35.957031 17.089844 36.097656 17.039062 36.429688 17.800781 C 36.667969 18.417969 36.335938 19.128906 35.289062 20.171875 C 32.199219 23.351562 32.246094 26.816406 35.382812 27.382812 C 39.09375 28.097656 40.710938 26.007812 40.285156 21.074219 C 39.996094 18.039062 39.996094 18.039062 42.234375 14.90625 L 44.46875 11.726562 L 44.609375 18.84375 C 44.707031 25.34375 44.800781 25.820312 45.46875 24.871094 C 45.847656 24.300781 46.464844 22.828125 46.800781 21.597656 C 47.511719 18.796875 49.605469 15.429688 50.554688 15.429688 C 51.078125 15.429688 51.363281 16.140625 51.601562 17.847656 C 51.746094 19.175781 52.125 21.5 52.410156 23.019531 C 52.695312 24.632812 52.742188 25.960938 52.507812 26.199219 C 51.839844 26.816406 44.375 29.28125 40.425781 30.183594 C 38.476562 30.65625 35.382812 31.75 33.53125 32.601562 C 29.773438 34.359375 21.972656 36.636719 19.59375 36.636719 C 18.738281 36.636719 16.835938 37.0625 15.363281 37.585938 C 13.839844 38.105469 12.507812 38.390625 12.316406 38.15625 C 12.175781 37.964844 11.746094 33.980469 11.414062 29.28125 C 11.128906 24.585938 10.75 20.648438 10.652344 20.550781 C 9.988281 19.886719 9.273438 22.355469 8.039062 29.757812 C 7.703125 31.558594 7.277344 33.601562 7.039062 34.265625 C 6.609375 35.449219 3.898438 39.152344 1.332031 42.234375 C 0.617188 43.089844 0 43.992188 0 44.273438 C 0 44.890625 1.902344 44.371094 4.804688 42.992188 C 6.085938 42.378906 7.800781 41.808594 8.65625 41.761719 L 10.226562 41.617188 L 10.652344 48.972656 C 11.035156 56.277344 11.507812 58.746094 12.316406 58.222656 C 12.554688 58.082031 12.9375 56.753906 13.078125 55.234375 C 13.460938 52.246094 15.078125 48.496094 15.980469 48.496094 C 16.550781 48.496094 16.789062 49.210938 17.359375 53.148438 C 17.644531 54.808594 17.789062 55.09375 18.359375 54.617188 C 18.738281 54.332031 19.023438 53.527344 19.023438 52.863281 C 19.023438 51.628906 22.066406 46.601562 22.828125 46.601562 C 23.066406 46.601562 23.496094 47.5 23.78125 48.59375 C 24.492188 51.390625 25.300781 53.148438 25.539062 52.386719 C 25.683594 52.105469 25.96875 51.820312 26.253906 51.820312 C 26.492188 51.820312 26.964844 51.535156 27.300781 51.203125 C 27.632812 50.917969 28.773438 49.96875 29.773438 49.210938 C 30.769531 48.402344 32.292969 47.074219 33.148438 46.171875 L 34.671875 44.511719 L 34.957031 45.9375 C 35.148438 46.695312 35.433594 47.738281 35.671875 48.261719 L 36.050781 49.210938 L 36.382812 48.261719 C 36.527344 47.738281 36.90625 46.933594 37.144531 46.503906 C 37.382812 46.03125 37.574219 45.414062 37.574219 45.082031 C 37.574219 44.75 38 43.941406 38.523438 43.277344 L 39.425781 42.09375 L 39.996094 43.609375 C 40.285156 44.464844 40.710938 45.175781 40.949219 45.175781 C 41.757812 45.175781 44.46875 43.660156 44.847656 42.992188 C 45.039062 42.613281 45.46875 42.328125 45.753906 42.328125 C 46.085938 42.328125 46.132812 43.46875 45.847656 45.984375 C 45.65625 48.023438 45.5625 50.824219 45.609375 52.152344 C 45.65625 53.859375 45.371094 55.378906 44.707031 56.894531 C 43.28125 60.074219 42.945312 65.671875 44.089844 67.238281 C 44.5625 67.855469 45.085938 68.425781 45.277344 68.425781 C 45.417969 68.425781 45.992188 67.523438 46.515625 66.386719 C 47.179688 64.960938 47.558594 62.875 47.75 58.984375 C 47.941406 56.042969 48.273438 53.148438 48.605469 52.625 C 48.890625 52.105469 50.414062 50.207031 52.03125 48.496094 C 53.601562 46.742188 55.789062 44.085938 56.835938 42.566406 C 60.257812 37.632812 60.402344 37.492188 63.113281 37.394531 C 64.445312 37.347656 65.679688 37.207031 65.824219 37.109375 C 65.917969 36.96875 66.15625 34.265625 66.296875 31.132812 C 66.441406 27.953125 66.679688 25.058594 66.773438 24.726562 C 66.917969 24.347656 67.105469 20.550781 67.25 16.28125 C 67.488281 9.257812 67.628906 8.40625 68.488281 7.597656 C 69.007812 7.125 69.4375 6.222656 69.4375 5.652344 C 69.4375 5.085938 69.628906 4.324219 69.867188 3.945312 C 70.578125 2.855469 71.339844 3.851562 71.386719 5.9375 C 71.433594 8.453125 72.625 13.199219 72.71875 11.488281 C 72.8125 10.398438 72.863281 10.398438 73.242188 11.253906 C 73.433594 11.773438 73.859375 13.148438 74.195312 14.335938 C 74.527344 15.523438 74.953125 16.992188 75.144531 17.65625 L 75.523438 18.84375 L 75.574219 17.65625 C 75.714844 13.433594 73.195312 3.707031 71.433594 1.527344 C 70.675781 0.625 70.578125 0.578125 69.53125 1.289062 Z M 30.152344 19.554688 C 30.4375 19.839844 30.34375 20.789062 29.960938 21.976562 C 29.441406 23.492188 28.917969 24.109375 27.679688 24.632812 C 26.445312 25.152344 25.921875 25.152344 25.398438 24.726562 C 24.304688 23.824219 24.636719 21.691406 26.0625 20.078125 C 27.0625 18.890625 27.585938 18.605469 28.535156 18.84375 C 29.203125 19.035156 29.914062 19.316406 30.152344 19.554688 Z M 38.902344 21.878906 C 39.046875 23.019531 38.761719 23.777344 38 24.585938 C 35.433594 27.289062 34.101562 24.726562 36.429688 21.644531 C 37.953125 19.699219 38.714844 19.746094 38.902344 21.878906 Z M 57.738281 34.832031 C 57.023438 37.15625 56.074219 38.582031 55.265625 38.4375 C 53.601562 38.105469 55.3125 33.789062 57.121094 33.789062 C 57.878906 33.789062 58.023438 33.980469 57.738281 34.832031 Z M 10.273438 38.769531 C 10.035156 39.484375 7.800781 40.574219 7.132812 40.335938 C 6.945312 40.242188 7.324219 39.054688 7.988281 37.632812 L 9.132812 35.117188 L 9.84375 36.589844 C 10.273438 37.394531 10.464844 38.34375 10.273438 38.769531 Z M 31.722656 43.324219 C 31.4375 45.414062 29.960938 47.40625 29.058594 46.882812 C 28.347656 46.410156 28.394531 43.660156 29.15625 42.710938 C 29.675781 41.996094 30.628906 41.523438 31.578125 41.429688 C 31.816406 41.382812 31.863281 42.28125 31.722656 43.324219 Z M 46.132812 61.402344 C 46.132812 64.296875 45.5625 66.148438 44.898438 65.484375 C 44.46875 65.054688 44.46875 60.832031 44.898438 59.503906 C 45.5625 57.558594 46.132812 58.460938 46.132812 61.402344 Z M 46.132812 61.402344 " fill-opacity="1" fill-rule="nonzero"/></g><g clip-path="url(#decba8a114)"><path fill="#ffffff" d="M 24.730469 3.042969 C 23.828125 6.554688 22.257812 11.726562 22.066406 11.917969 C 21.640625 12.34375 19.976562 10.304688 19.453125 8.738281 C 19.023438 7.457031 16.835938 4.039062 15.457031 2.570312 C 15.363281 2.476562 14.601562 2.523438 13.792969 2.710938 C 12.507812 2.996094 12.316406 3.1875 12.554688 4.183594 C 12.984375 5.796875 16.359375 11.253906 18.644531 13.957031 L 20.5 16.1875 L 19.785156 18.984375 C 19.40625 20.503906 18.929688 24.300781 18.738281 27.433594 C 18.453125 32.984375 18.453125 33.171875 19.40625 33.410156 C 20.640625 33.742188 20.832031 33.265625 21.164062 28.570312 C 21.496094 24.109375 21.78125 21.878906 22.402344 18.84375 C 23.160156 15.378906 24.921875 10.636719 25.113281 11.585938 C 25.207031 12.058594 25.492188 12.4375 25.777344 12.4375 C 26.0625 12.4375 26.109375 11.871094 25.921875 10.96875 C 25.730469 10.160156 25.824219 8.167969 26.15625 6.460938 C 27.0625 1.714844 25.824219 -1.179688 24.730469 3.042969 Z M 24.730469 3.042969 " fill-opacity="1" fill-rule="nonzero"/></g><g clip-path="url(#bfc90664b3)"><path fill="#ffffff" d="M 79.851562 23.257812 C 78.664062 24.207031 77.09375 25.769531 76.382812 26.671875 C 75.238281 28.097656 75.191406 28.332031 75.90625 28.476562 C 76.332031 28.570312 76.808594 28.476562 77 28.238281 C 77.140625 28 77.855469 27.480469 78.617188 27.003906 C 79.902344 26.199219 82.753906 22.640625 82.753906 21.832031 C 82.753906 21.167969 82.089844 21.453125 79.851562 23.257812 Z M 79.851562 23.257812 " fill-opacity="1" fill-rule="nonzero"/></g><path fill="#ffffff" d="M 25.921875 27.667969 C 25.730469 27.953125 25.683594 28.285156 25.824219 28.429688 C 26.15625 28.761719 27.109375 28.144531 27.109375 27.574219 C 27.109375 27.003906 26.300781 27.003906 25.921875 27.667969 Z M 25.921875 27.667969 " fill-opacity="1" fill-rule="nonzero"/></svg>